<?xml version="1.0" encoding="UTF-8"?>
<svg width="120px" height="68px" viewBox="0 0 120 68" version="1.1" xmlns="http://www.w3.org/2000/svg" xmlns:xlink="http://www.w3.org/1999/xlink">
    <!-- Generator: Sketch 39.1 (31720) - http://www.bohemiancoding.com/sketch -->
    <title>Slice</title>
    <desc>Created with Sketch.</desc>
    <defs></defs>
    <g id="Page-1" stroke="none" stroke-width="1" fill="none" fill-rule="evenodd">
        <path d="M34.328125,25.59375 L34.328125,37.53125 C34.328125,37.9479187 34.4244782,38.341144 34.6171875,38.7109375 C34.8098968,39.080731 35.072915,39.4010403 35.40625,39.671875 C35.739585,39.9427097 36.1302061,40.1588534 36.578125,40.3203125 C37.0260439,40.4817716 37.5052058,40.5625 38.015625,40.5625 C38.34896,40.5625 38.7031231,40.4921882 39.078125,40.3515625 C39.4531269,40.2109368 39.8203107,40.0156262 40.1796875,39.765625 C40.5390643,39.5156238 40.8776026,39.2265641 41.1953125,38.8984375 C41.5130224,38.5703109 41.7760406,38.2187519 41.984375,37.84375 L41.984375,25.59375 L45.3125,25.59375 L45.3125,42.375 L41.984375,42.375 L41.984375,39.234375 C41.6927069,39.7135441 41.325523,40.1666645 40.8828125,40.59375 C40.440102,41.0208355 39.9609401,41.3932276 39.4453125,41.7109375 C38.9296849,42.0286474 38.3984402,42.2786449 37.8515625,42.4609375 C37.3046848,42.6432301 36.7864608,42.734375 36.296875,42.734375 C35.5677047,42.734375 34.8802116,42.5963555 34.234375,42.3203125 C33.5885384,42.0442695 33.0260441,41.6718773 32.546875,41.203125 C32.0677059,40.7343727 31.6901055,40.184899 31.4140625,39.5546875 C31.1380195,38.924476 31,38.2500036 31,37.53125 L31,25.59375 L34.328125,25.59375 Z M54.578125,41.578125 C55.0364606,41.578125 55.4583314,41.5078132 55.84375,41.3671875 C56.2291686,41.2265618 56.5598945,41.0416678 56.8359375,40.8125 C57.1119805,40.5833322 57.3281242,40.3177098 57.484375,40.015625 C57.6406258,39.7135402 57.71875,39.4062516 57.71875,39.09375 C57.71875,38.5833308 57.5911471,38.1380227 57.3359375,37.7578125 C57.0807279,37.3776023 56.7421896,37.0338557 56.3203125,36.7265625 C55.8984354,36.4192693 55.4166694,36.1406262 54.875,35.890625 C54.3333306,35.6406238 53.783857,35.3828138 53.2265625,35.1171875 C52.669268,34.8515612 52.1197944,34.5651057 51.578125,34.2578125 C51.0364556,33.9505193 50.5546896,33.5963562 50.1328125,33.1953125 C49.7109354,32.7942688 49.3723971,32.3307318 49.1171875,31.8046875 C48.8619779,31.2786432 48.734375,30.6562536 48.734375,29.9375 C48.734375,29.2604133 48.8776027,28.6354195 49.1640625,28.0625 C49.4505223,27.4895805 49.8463516,26.9947937 50.3515625,26.578125 C50.8567734,26.1614563 51.460934,25.8359387 52.1640625,25.6015625 C52.867191,25.3671863 53.6354125,25.25 54.46875,25.25 C55.0208361,25.25 55.5416642,25.2890621 56.03125,25.3671875 C56.5208358,25.4453129 56.9973935,25.596353 57.4609375,25.8203125 C57.9244815,26.044272 58.3880185,26.359373 58.8515625,26.765625 C59.3151065,27.171877 59.7968725,27.7031217 60.296875,28.359375 L59.078125,29.453125 C58.4427052,28.4114531 57.7317748,27.6354192 56.9453125,27.125 C56.1588502,26.6145808 55.3177128,26.359375 54.421875,26.359375 C53.9531227,26.359375 53.5208353,26.4192702 53.125,26.5390625 C52.7291647,26.6588548 52.3906264,26.8203115 52.109375,27.0234375 C51.8281236,27.2265635 51.6093758,27.4635403 51.453125,27.734375 C51.2968742,28.0052097 51.21875,28.2916652 51.21875,28.59375 C51.21875,29.0937525 51.3593736,29.5312481 51.640625,29.90625 C51.9218764,30.2812519 52.2916644,30.6197902 52.75,30.921875 C53.2083356,31.2239598 53.7291637,31.5026029 54.3125,31.7578125 C54.8958363,32.0130221 55.4947886,32.2734362 56.109375,32.5390625 C56.7239614,32.8046888 57.3229137,33.0885402 57.90625,33.390625 C58.4895863,33.6927098 59.0104144,34.0442688 59.46875,34.4453125 C59.9270856,34.8463562 60.2968736,35.3098932 60.578125,35.8359375 C60.8593764,36.3619818 61,36.9739548 61,37.671875 C61,38.3802119 60.8671888,39.0442677 60.6015625,39.6640625 C60.3359362,40.2838573 59.9375027,40.8203102 59.40625,41.2734375 C58.8749973,41.7265648 58.2057332,42.083332 57.3984375,42.34375 C56.5911418,42.604168 55.651047,42.734375 54.578125,42.734375 C54.0885392,42.734375 53.5859401,42.6953129 53.0703125,42.6171875 C52.5546849,42.5390621 52.0338568,42.388022 51.5078125,42.1640625 C50.9817682,41.940103 50.4557318,41.625002 49.9296875,41.21875 C49.4036432,40.812498 48.8906275,40.2812533 48.390625,39.625 L49.75,38.390625 C50.156252,38.9635445 50.5468731,39.4505188 50.921875,39.8515625 C51.2968769,40.2526062 51.6744773,40.5807279 52.0546875,40.8359375 C52.4348977,41.0911471 52.8307271,41.2786452 53.2421875,41.3984375 C53.6536479,41.5182298 54.0989559,41.578125 54.578125,41.578125 L54.578125,41.578125 Z M66.140625,17 C66.401043,17 66.6484363,17.0442704 66.8828125,17.1328125 C67.1171887,17.2213546 67.3203116,17.3411451 67.4921875,17.4921875 C67.6640634,17.6432299 67.8020828,17.8203115 67.90625,18.0234375 C68.0104172,18.2265635 68.0625,18.4427072 68.0625,18.671875 C68.0625,18.9010428 68.0104172,19.1171865 67.90625,19.3203125 C67.8020828,19.5234385 67.6640634,19.7005201 67.4921875,19.8515625 C67.3203116,20.0026049 67.1171887,20.1223954 66.8828125,20.2109375 C66.6484363,20.2994796 66.401043,20.34375 66.140625,20.34375 C65.880207,20.34375 65.6354178,20.2994796 65.40625,20.2109375 C65.1770822,20.1223954 64.9765634,20.0026049 64.8046875,19.8515625 C64.6328116,19.7005201 64.4947922,19.5234385 64.390625,19.3203125 C64.2864578,19.1171865 64.234375,18.9010428 64.234375,18.671875 C64.234375,18.4427072 64.2864578,18.2265635 64.390625,18.0234375 C64.4947922,17.8203115 64.6328116,17.6432299 64.8046875,17.4921875 C64.9765634,17.3411451 65.1770822,17.2213546 65.40625,17.1328125 C65.6354178,17.0442704 65.880207,17 66.140625,17 L66.140625,17 Z M64.515625,26.203125 L66.859375,25.25 L67.828125,25.25 L67.828125,42.375 L64.515625,42.375 L64.515625,26.203125 Z M80.0625,42.734375 C78.7812436,42.734375 77.5963596,42.5104189 76.5078125,42.0625 C75.4192654,41.6145811 74.4817748,41.0052122 73.6953125,40.234375 C72.9088502,39.4635378 72.294273,38.559901 71.8515625,37.5234375 C71.408852,36.486974 71.1875,35.3802142 71.1875,34.203125 C71.1875,32.9635355 71.408852,31.7994846 71.8515625,30.7109375 C72.294273,29.6223904 72.9088502,28.6744832 73.6953125,27.8671875 C74.4817748,27.0598918 75.4192654,26.4218773 76.5078125,25.953125 C77.5963596,25.4843727 78.7812436,25.25 80.0625,25.25 C81.3437564,25.25 82.5234321,25.4635395 83.6015625,25.890625 C84.6796929,26.3177105 85.6145794,26.9036421 86.40625,27.6484375 C87.1979206,28.3932329 87.815102,29.2682241 88.2578125,30.2734375 C88.700523,31.2786509 88.921875,32.3541609 88.921875,33.5 C88.921875,34.7708397 88.700523,35.9661402 88.2578125,37.0859375 C87.815102,38.2057348 87.1979206,39.1848916 86.40625,40.0234375 C85.6145794,40.8619834 84.6796929,41.5234351 83.6015625,42.0078125 C82.5234321,42.4921899 81.3437564,42.734375 80.0625,42.734375 L80.0625,42.734375 Z M80.6875,41.5 C81.3437533,41.5 81.9453098,41.3307309 82.4921875,40.9921875 C83.0390652,40.6536441 83.5130188,40.2005237 83.9140625,39.6328125 C84.3151062,39.0651013 84.6249989,38.4010455 84.84375,37.640625 C85.0625011,36.8802045 85.171875,36.0781292 85.171875,35.234375 C85.171875,34.0156189 85.0677094,32.8776095 84.859375,31.8203125 C84.6510406,30.7630155 84.3125023,29.8385456 83.84375,29.046875 C83.3749977,28.2552044 82.7656288,27.6328148 82.015625,27.1796875 C81.2656212,26.7265602 80.3437555,26.5 79.25,26.5 C78.6874972,26.5 78.1458359,26.6614567 77.625,26.984375 C77.1041641,27.3072933 76.6432312,27.7499972 76.2421875,28.3125 C75.8411438,28.8750028 75.5208345,29.5312463 75.28125,30.28125 C75.0416655,31.0312538 74.921875,31.8281208 74.921875,32.671875 C74.921875,33.8906311 75.052082,35.036453 75.3125,36.109375 C75.572918,37.182297 75.9479142,38.1171835 76.4375,38.9140625 C76.9270858,39.7109415 77.5312464,40.3411435 78.25,40.8046875 C78.9687536,41.2682315 79.7812455,41.5 80.6875,41.5 L80.6875,41.5 Z M92.125,25.59375 L95.453125,25.59375 L95.453125,28.65625 C96.4635467,27.5208277 97.5156195,26.6692737 98.609375,26.1015625 C99.7031305,25.5338513 100.817703,25.25 101.953125,25.25 C102.536461,25.25 103.085935,25.3828112 103.601562,25.6484375 C104.11719,25.9140638 104.565102,26.2760394 104.945312,26.734375 C105.325523,27.1927106 105.627603,27.7317677 105.851562,28.3515625 C106.075522,28.9713573 106.1875,29.6302048 106.1875,30.328125 L106.1875,42.375 L102.84375,42.375 L102.84375,30.890625 C102.84375,29.7864528 102.593752,28.9479195 102.09375,28.375 C101.593748,27.8020805 100.953129,27.515625 100.171875,27.515625 C99.8177066,27.515625 99.4427103,27.5729161 99.046875,27.6875 C98.6510397,27.8020839 98.250002,27.9661448 97.84375,28.1796875 C97.437498,28.3932302 97.031252,28.648436 96.625,28.9453125 C96.218748,29.242189 95.8281269,29.5729148 95.453125,29.9375 L95.453125,42.375 L92.125,42.375 L92.125,25.59375 Z" id="Vusion" fill="#FFFFFF"></path>
        <polygon id="Vusion" fill="#FFFFFF" points="11.859375 21 20.0625 38.3125 27.703125 21 29.4375 21 19.546875 43.28125 18.609375 43.28125 8 21"></polygon>
    </g>
</svg>